<svg width="85" height="37" viewBox="0 0 85 37" fill="none" xmlns="http://www.w3.org/2000/svg">
<g clip-path="url(#clip0_4179_8846)">
<path d="M10.1318 9.81037C15.0645 9.3501 19.4353 12.9786 19.8905 17.9119C20.3457 22.8453 16.7128 27.2121 11.779 27.6622C6.85247 28.1119 2.49306 24.4853 2.0385 19.5591C1.58399 14.633 5.20609 10.2699 10.1318 9.81037ZM11.9204 26.7135C16.3241 26.1847 19.4645 22.1847 18.9331 17.7815C18.4018 13.3782 14.3999 10.2402 9.9969 10.7744C5.5978 11.3081 2.46334 15.3056 2.99422 19.7048C3.52515 24.1047 7.5206 27.2413 11.9204 26.7135Z" fill="#080C09"/>
<path d="M14.4733 14.071L15.5051 14.064C15.5252 17.042 15.5266 20.0201 15.5096 22.9981L14.4426 23.0115L14.4411 17.4161L14.4362 15.8838C13.8402 17.0148 13.1636 18.1021 12.519 19.2056C12.1104 19.9051 11.731 20.7076 11.2253 21.3365C11.1047 21.3807 10.9739 21.384 10.8483 21.3552C10.8072 21.3457 10.7212 21.3135 10.69 21.2886C10.4172 21.071 7.85272 16.5659 7.44317 15.8827C7.54831 16.6929 7.48225 17.5768 7.48181 18.3946L7.4787 22.9895L6.3877 22.9933C6.42149 20.0201 6.36814 17.0448 6.39666 14.071L7.58469 14.0771C8.11298 15.0217 8.67967 15.9465 9.22752 16.8799C9.8097 17.8719 10.3766 18.8758 10.9951 19.8456C11.6243 18.6965 12.328 17.5828 13.0044 16.4603C13.4835 15.6653 13.9365 14.828 14.4733 14.071Z" fill="#080C09"/>
<path d="M69.1025 16.1929C69.313 16.1787 69.5292 16.1732 69.7401 16.1769C70.5268 16.191 71.3303 16.6116 71.8686 17.1692C72.5398 17.864 72.8514 18.8331 72.8289 19.789C72.8063 20.7617 72.4415 21.6865 71.7258 22.3538C71.0911 22.9449 70.278 23.2613 69.4084 23.2287C68.4127 23.1913 67.7526 22.7718 67.0848 22.059C67.0589 22.4669 67.0666 22.8797 67.0627 23.2886C67.067 24.1007 67.0661 24.9128 67.0594 25.7254C66.6806 25.7628 66.299 25.7594 65.9208 25.7148C65.9827 24.4574 65.928 23.1697 65.9285 21.9089C65.9285 20.0335 65.9582 18.1531 65.916 16.2784L67.0426 16.2739C67.0205 16.6923 67.0258 17.1149 67.0196 17.534C67.6298 16.7724 68.139 16.4052 69.1025 16.1929ZM69.5906 22.2224C70.291 22.0911 70.8336 21.8054 71.2445 21.2009C71.6467 20.5992 71.791 19.8614 71.6448 19.1529C71.5192 18.5214 71.1452 17.9246 70.5954 17.5796C70.1625 17.3079 69.6941 17.2333 69.1941 17.2474C68.4999 17.3787 67.9371 17.6259 67.521 18.231C67.1289 18.801 66.9601 19.6126 67.0924 20.2905C67.218 20.9415 67.604 21.5129 68.1615 21.8715C68.6059 22.151 69.0752 22.2316 69.5906 22.2224Z" fill="#080C09"/>
<path d="M48.0811 13.3677C48.2647 13.5564 48.3218 14.0543 48.4311 14.3209C47.2489 14.8171 45.5351 14.7151 44.5844 15.6231C44.0159 16.1664 43.8802 16.9175 43.8682 17.6661C44.3768 17.0379 44.9344 16.5288 45.7685 16.3894C46.6113 16.2484 47.5044 16.4115 48.1957 16.9259C48.9383 17.4787 49.3515 18.2801 49.4757 19.1877C49.618 20.2309 49.3582 21.2146 48.7182 22.0478C48.2546 22.5622 47.7153 22.9424 47.036 23.1087C46.176 23.3196 45.1942 23.2103 44.4363 22.7401C43.5719 22.2031 43.0743 21.3172 42.8586 20.3426C42.5364 18.8862 42.5997 16.7096 43.4391 15.4169C44.1793 14.2765 45.2973 14.0507 46.5394 13.7553C47.0552 13.6326 47.5638 13.4816 48.0811 13.3677ZM46.1156 22.229C46.8476 22.1207 47.3922 21.9452 47.8472 21.3162C48.2935 20.6998 48.4378 19.9212 48.2992 19.1801C48.1875 18.582 47.8726 18.035 47.3591 17.6965C47.0447 17.4886 46.6798 17.3695 46.303 17.3516C45.5907 17.4313 45.0048 17.5788 44.5307 18.1663C44.0858 18.7179 43.8955 19.4629 43.9938 20.1619C44.0834 20.7995 44.432 21.4131 44.9555 21.7932C45.3097 22.0502 45.6899 22.1629 46.1156 22.229Z" fill="#080C09"/>
<path d="M32.0628 13.8214C32.479 13.7796 32.912 13.7996 33.3306 13.7967C33.2741 16.8609 33.3415 19.9341 33.3239 22.9999L32.2204 22.9888L32.2221 17.5681C32.2191 16.9471 32.2061 16.3247 32.2442 15.7045C31.2272 17.5828 30.3097 19.5434 29.1958 21.3646L28.4788 21.3608C27.3816 19.5621 26.4686 17.6239 25.454 15.7756C25.4937 16.6233 25.4669 17.484 25.4675 18.3329L25.4699 23.0003C25.102 22.9907 24.7356 23.0147 24.3672 22.9975L24.3677 17.4138C24.3685 16.2136 24.345 15.0058 24.4108 13.8072L25.6385 13.8078C25.9875 14.4062 26.2841 15.0474 26.6012 15.6638C27.3368 17.0937 28.0649 18.5391 28.8584 19.9375C30.0247 17.96 30.9479 15.83 32.0628 13.8214Z" fill="#080C09"/>
<path d="M37.7387 16.195C37.9071 16.186 38.0756 16.1796 38.2442 16.1759C39.1277 16.1614 40.008 16.4025 40.6449 17.0426C41.497 17.899 41.5818 18.9783 41.5819 20.1188C39.7429 20.1423 37.9014 20.1173 36.062 20.1255C36.1187 20.4289 36.1758 20.7194 36.3202 20.9965C36.6077 21.5507 37.1066 21.9654 37.704 22.1466C38.419 22.3633 39.1382 22.2362 39.7814 21.8815C39.9972 21.7348 40.1945 21.5632 40.3953 21.3973C40.684 21.5622 40.9762 21.6998 41.2812 21.8316C40.8274 22.4438 40.2424 22.8901 39.502 23.0929C38.554 23.3523 37.3985 23.2506 36.5446 22.7482C35.7958 22.3067 35.2586 21.58 35.0564 20.7348C34.8041 19.7185 34.945 18.6069 35.4965 17.7129C36.028 16.8513 36.7739 16.4255 37.7387 16.195ZM36.0738 19.2597C36.9847 19.2525 37.8956 19.2496 38.8066 19.252L40.5092 19.253C40.3432 18.5542 40.1768 17.9065 39.5266 17.4974C39.0508 17.1981 38.4739 17.1525 37.9264 17.1981C37.3351 17.3346 36.8366 17.6038 36.4992 18.1249C36.2707 18.4778 36.1694 18.857 36.0738 19.2597Z" fill="#080C09"/>
<path d="M60.6157 16.1931C60.7811 16.1848 60.946 16.1793 61.1114 16.1765C61.9925 16.167 62.8731 16.4284 63.5021 17.0713C64.3295 17.9176 64.4057 18.9975 64.4019 20.1145C62.5706 20.1423 60.735 20.1202 58.9028 20.1246C58.9272 20.4587 58.9857 20.7463 59.142 21.0469C59.4306 21.6035 59.9095 21.9717 60.5073 22.1466C61.3069 22.3815 62.0347 22.208 62.7413 21.8159C62.9139 21.697 63.0673 21.5517 63.224 21.4127C63.5145 21.569 63.8089 21.6955 64.1147 21.8173C63.6358 22.4467 63.0399 22.9031 62.2662 23.0992C61.3041 23.3432 60.1995 23.2497 59.341 22.7315C58.5787 22.2713 58.0562 21.5129 57.8558 20.649C57.6271 19.6624 57.7868 18.5277 58.3381 17.6724C58.8894 16.8172 59.6435 16.4034 60.6157 16.1931ZM58.8927 19.2573C59.7647 19.2549 60.6377 19.243 61.5097 19.2521L63.3578 19.2511C63.166 18.5326 62.9652 17.8326 62.27 17.4374C61.8395 17.1924 61.3151 17.1506 60.829 17.1998C60.2523 17.2952 59.7647 17.5122 59.4066 17.9943C59.1228 18.3762 59.002 18.8029 58.8927 19.2573Z" fill="#080C09"/>
<path d="M79.635 16.2901C80.7505 16.2378 81.8824 16.2757 82.9999 16.2793C82.9428 18.5128 82.9936 20.7614 82.9927 22.9968L81.8436 22.9844L81.8426 20.6895C81.2937 20.6862 80.5708 20.5788 80.0473 20.7034C79.8838 20.7422 79.8546 20.8247 79.763 20.9517C79.3752 21.6397 78.9437 22.3036 78.5544 22.992C78.1201 23.0016 77.6853 23.0031 77.251 22.9954C77.6762 22.1972 78.2534 21.1814 78.8162 20.4901C78.7491 20.4575 78.6829 20.423 78.6177 20.3875C78.1268 20.1166 77.7515 19.6809 77.6076 19.1344C77.4581 18.5647 77.5396 17.9144 77.8445 17.4085C78.2553 16.7261 78.8987 16.4637 79.635 16.2901ZM80.8133 19.7264C81.1528 19.7235 81.4989 19.7341 81.8373 19.7096C81.833 18.9153 81.8349 18.1209 81.8436 17.3266C81.1695 17.3241 80.4864 17.3061 79.8133 17.343C79.3886 17.476 79.0569 17.6195 78.8277 18.0289C78.6757 18.3009 78.635 18.66 78.7376 18.9555C78.8368 19.2417 79.0664 19.4426 79.3368 19.5649C79.7932 19.771 80.3244 19.7307 80.8133 19.7264Z" fill="#080C09"/>
<path d="M51.8097 16.3518C53.2651 16.2993 54.733 16.3333 56.1899 16.3307L56.1832 22.996C55.8203 22.9907 55.4559 22.9754 55.0959 23.0248L55.0906 17.3787L54.4732 17.4036C53.9219 17.3764 53.3586 17.4127 52.8063 17.4256C52.791 18.7692 52.7857 21.5545 51.8447 22.5487C51.3753 23.0444 50.8451 23.0952 50.2042 23.1005C50.1994 22.7501 50.1807 22.4039 50.1553 22.0545C50.3226 22.0391 50.5 22.0276 50.663 21.9864C51.6759 21.7309 51.6936 18.3837 51.7191 17.5398C51.7291 17.2109 51.6563 16.6195 51.8097 16.3518Z" fill="#080C09"/>
<path d="M75.416 16.3022L75.5651 16.2935C75.5828 16.3177 75.6082 16.3378 75.6192 16.3661C75.6691 16.4972 75.6178 22.3198 75.6183 22.9928L74.6422 22.9995L74.5703 22.9852C74.414 22.7028 74.5708 17.1543 74.5219 16.3155C74.8201 16.3192 75.1183 16.3092 75.416 16.3022Z" fill="#080C09"/>
<path d="M74.5009 13.7885L75.6236 13.7852C75.6117 14.1836 75.6208 14.5823 75.6265 14.9808L74.4707 14.9895C74.4875 14.5894 74.4975 14.189 74.5009 13.7885Z" fill="#080C09"/>
</g>
<defs>
<clipPath id="clip0_4179_8846">
<rect width="80.9997" height="17.9289" fill="white" transform="translate(2 9.771)"/>
</clipPath>
</defs>
</svg>
