<svg width="221" height="50" viewBox="0 0 221 50" fill="none" xmlns="http://www.w3.org/2000/svg">
  <g clip-path="url(#clip0_10348_683)">
    <path d="M22.2007 1.04166C35.619 -0.210366 47.5085 9.66009 48.7467 23.0797C49.985 36.4998 40.1026 48.3785 26.6817 49.603C13.2802 50.8262 1.4216 40.961 0.185092 27.5604C-1.05129 14.1604 8.80169 2.29174 22.2007 1.04166ZM27.0663 47.0223C39.0454 45.5839 47.588 34.7028 46.1425 22.7251C44.6971 10.7469 33.8111 2.21102 21.8338 3.66414C9.86724 5.11582 1.34075 15.9899 2.78487 27.9569C4.22912 39.9256 15.0977 48.458 27.0663 47.0223Z" fill="white" />
    <path d="M34.0095 12.6315L36.8164 12.6123C36.8709 20.7131 36.8748 28.8145 36.8285 36.9153L33.9262 36.9519L33.9219 21.7308L33.9086 17.5628C32.2875 20.6393 30.447 23.597 28.6935 26.5989C27.5821 28.5015 26.5498 30.6845 25.1744 32.3955C24.8463 32.5154 24.4904 32.5246 24.1486 32.4463C24.0368 32.4202 23.8029 32.3329 23.718 32.2651C22.9761 31.673 16 19.4182 14.886 17.5598C15.172 19.7635 14.9923 22.1681 14.9911 24.3927L14.9826 36.8919L12.0148 36.9023C12.1068 28.8145 11.9616 20.721 12.0392 12.6313L15.2709 12.6482C16.708 15.2176 18.2495 17.7332 19.7398 20.2724C21.3235 22.9707 22.8655 25.7017 24.548 28.3398C26.2597 25.214 28.1739 22.1844 30.0139 19.1309C31.3172 16.9683 32.5492 14.6907 34.0095 12.6315Z" fill="white" />
    <path d="M182.616 18.4049C183.189 18.3664 183.777 18.3513 184.351 18.3615C186.491 18.3997 188.676 19.5439 190.141 21.0608C191.967 22.9509 192.814 25.587 192.753 28.1873C192.692 30.8333 191.699 33.3488 189.752 35.1641C188.026 36.772 185.814 37.6327 183.448 37.544C180.74 37.4423 178.944 36.3012 177.128 34.3621C177.057 35.4718 177.078 36.5946 177.068 37.707C177.079 39.9161 177.077 42.1252 177.059 44.3355C176.028 44.4373 174.99 44.4281 173.961 44.3069C174.13 40.8863 173.981 37.3836 173.982 33.9539C173.982 28.8524 174.063 23.7372 173.948 18.6374L177.013 18.6254C176.953 19.7635 176.967 20.9131 176.95 22.0532C178.61 19.9813 179.995 18.9823 182.616 18.4049ZM183.944 34.8068C185.849 34.4494 187.325 33.6722 188.443 32.0278C189.537 30.3912 189.93 28.3842 189.532 26.4568C189.19 24.7391 188.173 23.1157 186.677 22.177C185.5 21.4382 184.226 21.2351 182.866 21.2736C180.977 21.6305 179.446 22.303 178.314 23.9491C177.248 25.4997 176.789 27.7074 177.149 29.5514C177.49 31.3223 178.54 32.8767 180.057 33.8522C181.265 34.6124 182.542 34.8315 183.944 34.8068Z" fill="white" />
    <path d="M125.432 10.7188C125.931 11.232 126.086 12.5864 126.384 13.3118C123.168 14.6615 118.506 14.384 115.92 16.8541C114.373 18.3319 114.004 20.3751 113.971 22.4115C115.355 20.7025 116.872 19.3177 119.141 18.9385C121.433 18.5551 123.863 18.9986 125.743 20.398C127.763 21.9017 128.887 24.0816 129.225 26.5507C129.612 29.3884 128.906 32.0643 127.165 34.3308C125.904 35.73 124.437 36.7641 122.589 37.2167C120.249 37.7904 117.579 37.4931 115.517 36.2138C113.166 34.7533 111.812 32.3434 111.225 29.6922C110.349 25.7305 110.521 19.8096 112.804 16.2931C114.818 13.1909 117.859 12.5767 121.238 11.7731C122.641 11.4394 124.024 11.0287 125.432 10.7188ZM120.085 34.8237C122.076 34.529 123.558 34.0517 124.795 32.3408C126.009 30.6637 126.402 28.5459 126.025 26.5299C125.721 24.9029 124.864 23.4149 123.468 22.4942C122.612 21.9286 121.62 21.6045 120.595 21.556C118.657 21.7726 117.063 22.174 115.774 23.7722C114.564 25.2727 114.046 27.2993 114.313 29.2006C114.557 30.935 115.505 32.6042 116.929 33.6383C117.893 34.3373 118.927 34.6437 120.085 34.8237Z" fill="white" />
    <path d="M81.8592 11.9532C82.9912 11.8396 84.1691 11.894 85.3077 11.8861C85.154 20.2215 85.3374 28.5813 85.2895 36.9208L82.2877 36.8908L82.2924 22.1453C82.2842 20.4558 82.249 18.7629 82.3525 17.0758C79.5861 22.1852 77.0901 27.5185 74.0601 32.4727L72.1096 32.4622C69.1251 27.5694 66.6414 22.2971 63.8816 17.2692C63.9896 19.575 63.9166 21.9163 63.9182 24.2255L63.9248 36.9221C62.9241 36.896 61.9272 36.9612 60.9252 36.9143L60.9266 21.7255C60.9287 18.4605 60.8648 15.175 61.0437 11.9145L64.3836 11.9163C65.3329 13.5441 66.1398 15.2882 67.0023 16.965C69.0032 20.8546 70.9838 24.7865 73.1424 28.5905C76.315 23.2112 78.8263 17.417 81.8592 11.9532Z" fill="white" />
    <path d="M97.2982 18.4101C97.7563 18.3856 98.2148 18.3683 98.6734 18.3581C101.077 18.3187 103.471 18.9744 105.204 20.7159C107.522 23.0454 107.752 25.9813 107.753 29.0836C102.75 29.1475 97.7408 29.0797 92.7372 29.1019C92.8915 29.9274 93.0468 30.7176 93.4396 31.4714C94.2216 32.9789 95.5789 34.1069 97.2039 34.5998C99.1489 35.1893 101.105 34.8437 102.855 33.8787C103.442 33.4796 103.979 33.0128 104.525 32.5616C105.31 33.0102 106.105 33.3844 106.935 33.7431C105.7 35.4083 104.109 36.6224 102.095 37.1741C99.516 37.8795 96.3729 37.6031 94.05 36.2364C92.0132 35.0354 90.5519 33.0584 90.0017 30.7594C89.3155 27.9947 89.6987 24.9709 91.1988 22.5392C92.6448 20.1953 94.6737 19.037 97.2982 18.4101ZM92.7693 26.7468C95.2471 26.7272 97.7251 26.7194 100.203 26.7259L104.835 26.7285C104.383 24.8277 103.93 23.0656 102.162 21.9529C100.868 21.1386 99.2982 21.0146 97.8087 21.1388C96.2003 21.5102 94.8444 22.2423 93.9265 23.6599C93.305 24.6198 93.0294 25.6513 92.7693 26.7468Z" fill="white" />
    <path d="M159.53 18.4041C159.98 18.3816 160.428 18.3666 160.878 18.3591C163.275 18.3331 165.67 19.0442 167.381 20.7931C169.632 23.0952 169.84 26.0328 169.829 29.0713C164.848 29.1469 159.854 29.087 154.87 29.0987C154.937 30.0076 155.096 30.7901 155.521 31.6077C156.306 33.1217 157.609 34.1233 159.235 34.5992C161.41 35.2382 163.39 34.7662 165.312 33.6994C165.781 33.376 166.199 32.9809 166.625 32.6027C167.415 33.0278 168.216 33.3721 169.048 33.7033C167.745 35.4156 166.124 36.657 164.019 37.1904C161.402 37.8542 158.398 37.5999 156.062 36.1902C153.989 34.9383 152.567 32.8752 152.022 30.5253C151.4 27.8416 151.834 24.7549 153.334 22.4282C154.834 20.102 156.885 18.9762 159.53 18.4041ZM154.843 26.7396C157.215 26.7331 159.59 26.7005 161.962 26.7253L166.989 26.7227C166.467 24.7683 165.921 22.8641 164.03 21.789C162.859 21.1225 161.432 21.0089 160.11 21.1426C158.541 21.4022 157.215 21.9925 156.241 23.304C155.469 24.3426 155.14 25.5034 154.843 26.7396Z" fill="white" />
    <path d="M211.266 18.6674C214.3 18.5251 217.379 18.6283 220.419 18.6379C220.264 24.7137 220.402 30.8304 220.399 36.9112L217.273 36.8773L217.271 30.6348C215.778 30.6256 213.811 30.3335 212.387 30.6726C211.942 30.7782 211.863 31.0025 211.614 31.3481C210.559 33.2194 209.385 35.0256 208.326 36.8982C207.145 36.9243 205.962 36.9282 204.781 36.9073C205.937 34.7361 207.507 31.9727 209.038 30.0923C208.856 30.0036 208.676 29.9097 208.498 29.8132C207.163 29.0764 206.142 27.891 205.751 26.4044C205.344 24.8546 205.566 23.0858 206.395 21.7098C207.513 19.8533 209.263 19.1396 211.266 18.6674ZM214.471 28.0149C215.394 28.0071 216.336 28.0358 217.256 27.9693C217.245 25.8084 217.25 23.6476 217.273 21.4868C215.44 21.4801 213.582 21.431 211.751 21.5314C210.595 21.8932 209.693 22.2837 209.07 23.3972C208.656 24.1373 208.545 25.1139 208.824 25.918C209.094 26.6965 209.719 27.2429 210.454 27.5754C211.696 28.1362 213.141 28.0266 214.471 28.0149Z" fill="white" />
    <path d="M135.573 18.8352C139.533 18.6924 143.526 18.785 147.489 18.7777L147.47 36.909C146.483 36.8947 145.492 36.8529 144.513 36.9873L144.498 21.6287L142.819 21.6963C141.319 21.6224 139.787 21.7211 138.285 21.7563C138.243 25.4111 138.228 32.9877 135.669 35.6923C134.392 37.0407 132.95 37.1789 131.206 37.1933C131.193 36.24 131.142 35.2985 131.073 34.3478C131.528 34.3061 132.011 34.2748 132.454 34.1626C135.21 33.4676 135.258 24.3625 135.327 22.0668C135.354 21.1721 135.156 19.5635 135.573 18.8352Z" fill="white" />
    <path d="M199.788 18.7016L200.194 18.6777C200.242 18.7436 200.311 18.7985 200.341 18.8753C200.477 19.232 200.337 35.0707 200.338 36.9016L197.683 36.9199L197.488 36.8808C197.063 36.1127 197.489 21.0193 197.356 18.7377C198.167 18.7478 198.978 18.7205 199.788 18.7016Z" fill="white" />
    <path d="M197.3 11.8646L200.355 11.8555C200.322 12.9393 200.347 14.024 200.362 15.1079L197.218 15.1317C197.264 14.0432 197.291 12.954 197.3 11.8646Z" fill="white" />
  </g>
  <defs>
    <clipPath id="clip0_10348_683">
      <rect width="220.338" height="48.771" fill="white" transform="translate(0.0803604 0.93457)" />
    </clipPath>
  </defs>
</svg>