<svg aria-hidden="true" style="position:absolute;width:0;height:0;overflow:hidden" xmlns="http://www.w3.org/2000/svg">
 <defs>
   <symbol id="icon-logo-footer" viewBox="0 0 74 32">
<path d="M7.378 7.401c4.476-0.418 8.442 2.875 8.855 7.352s-2.884 8.439-7.361 8.848c-4.471 0.408-8.426-2.883-8.839-7.353s2.874-8.429 7.344-8.846zM9.001 22.74c3.996-0.48 6.846-4.11 6.364-8.105s-4.114-6.843-8.109-6.359c-3.992 0.484-6.836 4.112-6.354 8.104s4.107 6.839 8.1 6.36z"></path>
<path d="M11.318 11.267l0.936-0.006c0.018 2.702 0.020 5.405 0.004 8.107l-0.968 0.012-0.001-5.078-0.004-1.39c-0.541 1.026-1.155 2.013-1.74 3.014-0.371 0.635-0.715 1.363-1.174 1.934-0.109 0.040-0.228 0.043-0.342 0.017-0.037-0.009-0.115-0.038-0.144-0.061-0.248-0.197-2.575-4.286-2.946-4.905 0.095 0.735 0.035 1.537 0.035 2.279l-0.003 4.17-0.99 0.003c0.031-2.698-0.018-5.398 0.008-8.096l1.078 0.006c0.479 0.857 0.994 1.696 1.491 2.543 0.528 0.9 1.043 1.811 1.604 2.691 0.571-1.043 1.21-2.053 1.823-3.072 0.435-0.721 0.846-1.481 1.333-2.168z"></path>
<path d="M60.89 13.193c0.191-0.013 0.387-0.018 0.579-0.015 0.714 0.013 1.443 0.394 1.931 0.9 0.609 0.631 0.892 1.51 0.871 2.377-0.020 0.883-0.352 1.722-1.001 2.327-0.576 0.536-1.314 0.823-2.103 0.794-0.904-0.034-1.503-0.415-2.108-1.061-0.023 0.37-0.017 0.745-0.020 1.116 0.004 0.737 0.003 1.474-0.003 2.211-0.344 0.034-0.69 0.031-1.033-0.010 0.056-1.141 0.007-2.309 0.007-3.454 0-1.702 0.027-3.408-0.011-5.109l1.022-0.004c-0.020 0.38-0.015 0.763-0.021 1.143 0.554-0.691 1.016-1.024 1.89-1.217zM61.333 18.664c0.636-0.119 1.128-0.378 1.501-0.927 0.365-0.546 0.496-1.216 0.363-1.858-0.114-0.573-0.453-1.114-0.952-1.428-0.393-0.246-0.818-0.314-1.272-0.301-0.63 0.119-1.141 0.343-1.518 0.892-0.356 0.517-0.509 1.254-0.389 1.869 0.114 0.591 0.464 1.109 0.97 1.435 0.403 0.254 0.829 0.327 1.297 0.319z"></path>
<path d="M41.815 10.629c0.167 0.171 0.218 0.623 0.318 0.865-1.073 0.45-2.628 0.358-3.491 1.182-0.516 0.493-0.639 1.175-0.65 1.854 0.462-0.57 0.968-1.032 1.724-1.159 0.765-0.128 1.575 0.020 2.203 0.487 0.674 0.502 1.049 1.229 1.162 2.053 0.129 0.947-0.107 1.839-0.687 2.595-0.421 0.467-0.91 0.812-1.526 0.963-0.78 0.191-1.671 0.092-2.359-0.334-0.784-0.487-1.236-1.291-1.432-2.176-0.292-1.322-0.235-3.297 0.527-4.47 0.672-1.035 1.686-1.24 2.813-1.508 0.468-0.111 0.93-0.248 1.399-0.352zM40.031 18.67c0.664-0.098 1.158-0.258 1.571-0.828 0.405-0.559 0.536-1.266 0.41-1.938-0.101-0.543-0.387-1.039-0.853-1.346-0.285-0.189-0.616-0.297-0.958-0.313-0.646 0.072-1.178 0.206-1.608 0.739-0.404 0.501-0.576 1.177-0.487 1.811 0.081 0.579 0.398 1.135 0.873 1.48 0.321 0.233 0.666 0.335 1.053 0.395z"></path>
<path d="M27.279 11.041c0.378-0.038 0.771-0.020 1.15-0.022-0.051 2.781 0.010 5.569-0.006 8.351l-1.001-0.010 0.002-4.919c-0.003-0.564-0.015-1.128 0.020-1.691-0.923 1.704-1.755 3.483-2.766 5.136l-0.651-0.004c-0.996-1.632-1.824-3.391-2.745-5.068 0.036 0.769 0.012 1.55 0.012 2.321l0.002 4.235c-0.334-0.009-0.666 0.013-1.001-0.003l0-5.067c0.001-1.089-0.021-2.185 0.039-3.273l1.114 0.001c0.317 0.543 0.586 1.125 0.874 1.684 0.668 1.298 1.328 2.609 2.048 3.878 1.058-1.794 1.896-3.727 2.908-5.55z"></path>
<path d="M32.429 13.195c0.153-0.008 0.306-0.014 0.459-0.017 0.802-0.013 1.601 0.206 2.178 0.787 0.773 0.777 0.85 1.756 0.85 2.791-1.669 0.021-3.34-0.001-5.009 0.006 0.051 0.275 0.103 0.539 0.234 0.79 0.261 0.503 0.714 0.879 1.256 1.044 0.649 0.197 1.301 0.081 1.885-0.241 0.196-0.133 0.375-0.289 0.557-0.439 0.262 0.15 0.527 0.274 0.804 0.394-0.412 0.555-0.943 0.961-1.615 1.144-0.86 0.235-1.909 0.143-2.684-0.313-0.68-0.401-1.167-1.060-1.35-1.827-0.229-0.922-0.101-1.931 0.399-2.742 0.482-0.782 1.159-1.168 2.035-1.377zM30.919 15.976c0.827-0.007 1.653-0.009 2.48-0.007l1.545 0.001c-0.151-0.634-0.302-1.222-0.892-1.593-0.432-0.272-0.955-0.313-1.452-0.272-0.537 0.124-0.989 0.368-1.295 0.841-0.207 0.32-0.299 0.664-0.386 1.030z"></path>
<path d="M53.189 13.193c0.15-0.008 0.3-0.013 0.45-0.015 0.8-0.009 1.599 0.229 2.169 0.812 0.751 0.768 0.82 1.748 0.817 2.762-1.662 0.025-3.327 0.005-4.99 0.009 0.022 0.303 0.075 0.564 0.217 0.837 0.262 0.505 0.696 0.839 1.239 0.998 0.726 0.213 1.386 0.056 2.027-0.3 0.157-0.108 0.296-0.24 0.438-0.366 0.264 0.142 0.531 0.257 0.808 0.367-0.435 0.571-0.975 0.985-1.677 1.163-0.873 0.221-1.875 0.137-2.654-0.334-0.692-0.418-1.166-1.106-1.348-1.89-0.208-0.895-0.063-1.925 0.438-2.701s1.185-1.152 2.067-1.342zM51.625 15.974c0.791-0.002 1.583-0.013 2.375-0.005l1.677-0.001c-0.174-0.652-0.356-1.287-0.987-1.646-0.391-0.222-0.867-0.26-1.308-0.216-0.523 0.087-0.966 0.284-1.291 0.721-0.258 0.347-0.367 0.734-0.466 1.146z"></path>
<path d="M70.448 13.281c1.012-0.047 2.039-0.013 3.053-0.010-0.052 2.027-0.006 4.067-0.007 6.096l-1.043-0.011-0.001-2.082c-0.498-0.003-1.154-0.1-1.629 0.013-0.148 0.035-0.175 0.11-0.258 0.225-0.352 0.624-0.743 1.227-1.097 1.851-0.394 0.009-0.789 0.010-1.183 0.003 0.386-0.724 0.91-1.646 1.42-2.273-0.061-0.030-0.121-0.061-0.18-0.093-0.445-0.246-0.786-0.641-0.917-1.137-0.136-0.517-0.062-1.107 0.215-1.566 0.373-0.619 0.957-0.857 1.625-1.015zM71.517 16.399c0.308-0.003 0.622 0.007 0.929-0.015-0.004-0.721-0.002-1.442 0.006-2.162-0.612-0.002-1.232-0.019-1.842 0.015-0.385 0.121-0.686 0.251-0.894 0.622-0.138 0.247-0.175 0.573-0.082 0.841 0.090 0.26 0.298 0.442 0.544 0.553 0.414 0.187 0.896 0.15 1.34 0.147z"></path>
<path d="M45.198 13.337c1.321-0.048 2.653-0.017 3.975-0.019l-0.006 6.048c-0.329-0.005-0.66-0.019-0.987 0.026l-0.005-5.123-0.56 0.023c-0.5-0.025-1.011 0.008-1.513 0.020-0.014 1.219-0.019 3.747-0.873 4.649-0.426 0.45-0.907 0.496-1.489 0.501-0.004-0.318-0.021-0.632-0.044-0.949 0.152-0.014 0.313-0.024 0.461-0.062 0.919-0.232 0.935-3.269 0.958-4.035 0.009-0.298-0.057-0.835 0.082-1.078z"></path>
<path d="M66.619 13.292l0.135-0.008c0.016 0.022 0.039 0.040 0.049 0.066 0.045 0.119-0.001 5.403-0.001 6.013l-0.886 0.006-0.065-0.013c-0.142-0.256 0-5.291-0.044-6.052 0.271 0.003 0.541-0.006 0.811-0.012z"></path>
<path d="M65.789 11.011l1.019-0.003c-0.011 0.362-0.003 0.723 0.003 1.085l-1.049 0.008c0.015-0.363 0.024-0.726 0.027-1.090z"></path>
</symbol>
</defs>
</svg>
