<svg aria-hidden="true" style="position:absolute;width:0;height:0;overflow:hidden" xmlns="http://www.w3.org/2000/svg">
 <defs>
    <symbol id="logo-company" width="2352" height="1024" viewBox="0 0 2352 1024">
        <path d="M280.404 271.495c136.516-12.738 257.481 87.683 270.079 224.215 12.598 136.535-87.945 257.389-224.491 269.849-136.345 12.443-256.995-87.926-269.575-224.262-12.579-136.333 87.665-257.085 223.988-269.802zM329.905 739.3c121.875-14.632 208.788-125.338 194.081-247.199-14.704-121.864-125.459-208.708-247.315-193.926-121.748 14.771-208.496 125.404-193.804 247.155 14.694 121.77 125.271 208.578 247.038 193.971z" fill="#ffffff" ></path>
        <path fill="#ffffff" d="M400.558 389.411l28.556-0.194c0.556 82.418 0.595 164.839 0.125 247.257l-29.53 0.374-0.042-154.859-0.136-42.407c-16.495 31.301-35.22 61.393-53.060 91.936-11.308 19.356-21.808 41.566-35.804 58.974-3.338 1.22-6.958 1.312-10.434 0.518-1.137-0.266-3.518-1.154-4.381-1.846-7.55-6.022-78.524-130.704-89.858-149.612 2.91 22.423 1.082 46.885 1.069 69.519l-0.086 127.167-30.194 0.105c0.935-82.285-0.541-164.629 0.248-246.931l32.88 0.172c14.621 26.14 30.304 51.734 45.466 77.567 16.112 27.454 31.802 55.238 48.919 82.078 17.414-31.802 36.889-62.625 55.609-93.69 13.259-22.002 25.796-45.175 40.653-66.125z"></path>
        <path fill="#ffffff" d="M1912.458 448.136c5.826-0.393 11.809-0.545 17.646-0.443 21.772 0.39 44.010 12.031 58.908 27.463 18.576 19.232 27.2 46.050 26.577 72.508-0.625 26.917-10.722 52.512-30.529 70.98-17.566 16.359-40.069 25.116-64.136 24.213-27.557-1.035-45.825-12.645-64.307-32.372-0.717 11.289-0.504 22.713-0.612 34.030 0.119 22.475 0.094 44.951-0.091 67.44-10.484 1.035-21.045 0.941-31.512-0.293 1.713-34.799 0.199-70.437 0.213-105.331 0-51.903 0.822-103.944-0.346-155.828l31.179-0.122c-0.612 11.577-0.465 23.275-0.637 34.871 16.888-21.078 30.98-31.24 57.646-37.116zM1925.967 615.009c19.384-3.637 34.401-11.544 45.773-28.273 11.131-16.652 15.125-37.072 11.079-56.68-3.476-17.477-13.827-33.991-29.043-43.542-11.981-7.517-24.944-9.584-38.782-9.191-19.212 3.631-34.788 10.472-46.304 27.219-10.852 15.775-15.523 38.237-11.862 56.998 3.476 18.017 14.159 33.834 29.588 43.755 12.299 7.735 25.287 9.966 39.551 9.714z"></path>
        <path fill="#ffffff" d="M1330.677 369.946c5.081 5.222 6.662 19.002 9.686 26.38-32.718 13.733-80.149 10.91-106.46 36.039-15.734 15.036-19.489 35.823-19.821 56.541 14.076-17.386 29.508-31.476 52.592-35.334 23.325-3.9 48.042 0.612 67.174 14.848 20.552 15.299 31.988 37.478 35.425 62.6 3.938 28.868-3.252 56.093-20.964 79.152-12.83 14.236-27.756 24.759-46.556 29.361-23.801 5.837-50.973 2.812-71.948-10.201-23.923-14.862-37.694-39.38-43.664-66.352-8.917-40.307-7.165-100.546 16.066-136.322 20.486-31.561 51.427-37.811 85.803-45.986 14.275-3.396 28.351-7.575 42.668-10.727zM1276.28 615.189c20.259-2.997 35.331-7.854 47.923-25.26 12.352-17.062 16.345-38.61 12.509-59.121-3.091-16.553-11.806-31.691-26.018-41.060-8.701-5.754-18.8-9.050-29.228-9.545-19.713 2.206-35.929 6.288-49.050 22.547-12.313 15.269-17.58 35.884-14.859 55.23 2.48 17.646 12.127 34.628 26.616 45.15 9.803 7.11 20.325 10.229 32.107 12.058z"></path>
        <path fill="#ffffff" d="M887.36 382.503c11.519-1.154 23.502-0.603 35.087-0.684-1.564 84.804 0.302 169.857-0.185 254.705l-30.54-0.307 0.047-150.019c-0.083-17.189-0.443-34.415 0.612-51.576-28.146 51.98-53.539 106.241-84.367 156.647l-19.843-0.108c-30.366-49.78-55.634-103.418-83.713-154.571 1.099 23.458 0.357 47.278 0.374 70.772l0.066 129.173c-10.182-0.263-20.322 0.399-30.518-0.077l0.014-154.533c0.022-33.216-0.628-66.643 1.193-99.815l33.977 0.017c9.659 16.561 17.867 34.307 26.643 51.366 20.358 39.573 40.509 79.576 62.47 118.278 32.278-54.729 57.828-113.678 88.684-169.267z"></path>
        <path fill="#ffffff" d="M1044.444 448.194c4.661-0.249 9.324-0.423 13.99-0.529 24.451-0.401 48.814 6.271 66.441 23.989 23.582 23.699 25.929 53.569 25.932 85.133-50.896 0.65-101.86-0.042-152.767 0.185 1.569 8.397 3.149 16.439 7.146 24.106 7.957 15.338 21.764 26.815 38.298 31.83 19.788 5.997 39.692 2.483 57.493-7.337 5.972-4.060 11.433-8.809 16.99-13.401 7.99 4.564 16.077 8.372 24.518 12.022-12.559 16.94-28.749 29.295-49.241 34.905-26.237 7.179-58.216 4.367-81.848-9.54-20.724-12.219-35.591-32.331-41.187-55.722-6.983-28.127-3.083-58.891 12.18-83.633 14.71-23.845 35.353-35.63 62.054-42.009zM998.367 533.011c25.21-0.199 50.42-0.28 75.632-0.213l47.121 0.028c-4.594-19.34-9.199-37.265-27.194-48.587-13.168-8.283-29.134-9.545-44.287-8.283-16.365 3.78-30.161 11.228-39.499 25.65-6.324 9.767-9.127 20.261-11.773 31.406z"></path>
        <path fill="#ffffff" d="M1677.58 448.141c4.578-0.23 9.141-0.382 13.719-0.459 24.385-0.263 48.756 6.972 66.164 24.764 22.899 23.422 25.008 53.309 24.903 84.223-50.682 0.769-101.484 0.161-152.191 0.28 0.675 9.246 2.294 17.206 6.62 25.525 7.987 15.404 21.241 25.594 37.786 30.438 22.129 6.501 42.272 1.697 61.827-9.155 4.777-3.291 9.022-7.312 13.359-11.159 8.040 4.326 16.188 7.827 24.651 11.198-13.254 17.422-29.746 30.050-51.158 35.477-26.627 6.753-57.197 4.165-80.957-10.176-21.097-12.736-35.558-33.726-41.104-57.635-6.329-27.305-1.91-58.708 13.348-82.379 15.258-23.668 36.128-35.12 63.034-40.941zM1629.895 532.945c24.133-0.064 48.294-0.396 72.427-0.144l51.147-0.028c-5.308-19.882-10.865-39.258-30.106-50.195-11.914-6.781-26.428-7.935-39.881-6.576-15.961 2.64-29.455 8.646-39.366 21.988-7.854 10.569-11.198 22.379-14.223 34.954z"></path>
        <path fill="#ffffff" d="M2203.952 450.826c30.872-1.447 62.198-0.396 93.126-0.299-1.58 61.814-0.174 124.045-0.199 185.911l-31.802-0.343-0.028-63.513c-15.191-0.091-35.198-3.064-49.686 0.385-4.525 1.077-5.333 3.357-7.868 6.875-10.733 19.038-22.675 37.412-33.449 56.467-12.020 0.263-24.053 0.304-36.072 0.091 11.768-22.091 27.742-50.204 43.318-69.336-1.857-0.902-3.689-1.857-5.494-2.84-13.586-7.497-23.973-19.556-27.955-34.68-4.138-15.767-1.882-33.764 6.556-47.763 11.369-18.889 29.176-26.151 49.553-30.955zM2236.563 545.928c9.396-0.080 18.974 0.213 28.34-0.465-0.119-21.983-0.066-43.968 0.174-65.951-18.656-0.069-37.561-0.567-56.19 0.454-11.754 3.681-20.934 7.652-27.277 18.983-4.207 7.531-5.333 17.466-2.494 25.647 2.745 7.921 9.1 13.478 16.583 16.863 12.631 5.704 27.332 4.589 40.863 4.47z"></path>
        <path fill="#ffffff" d="M1433.868 452.533c40.279-1.453 80.904-0.509 121.225-0.584l-0.185 184.467c-10.044-0.147-20.129-0.57-30.092 0.797l-0.147-156.26-17.087 0.689c-15.258-0.753-30.847 0.252-46.133 0.612-0.423 37.182-0.57 114.267-26.613 141.782-12.991 13.719-27.665 15.125-45.402 15.271-0.133-9.698-0.65-19.276-1.353-28.949 4.63-0.426 9.54-0.744 14.051-1.885 28.033-7.071 28.523-99.707 29.228-123.063 0.277-9.103-1.738-25.467 2.507-32.879z"></path>
        <path fill="#ffffff" d="M2087.189 451.161l4.126-0.241c0.49 0.67 1.193 1.229 1.497 2.009 1.381 3.628-0.039 164.773-0.025 183.398l-27.014 0.188-1.99-0.399c-4.326-7.816 0.014-161.374-1.34-184.588 8.253 0.102 16.506-0.174 24.745-0.368z"></path>
        <path fill="#ffffff" d="M2061.863 381.592l31.071-0.091c-0.329 11.026-0.077 22.063 0.080 33.089l-31.988 0.241c0.465-11.073 0.742-22.154 0.836-33.238z"></path>
    </symbol>
</defs>
</svg>
